<svg xmlns="http://www.w3.org/2000/svg" width="33" height="13" viewBox="0 0 33 13" fill="none">
  <path d="M13.7995 0.691369L0.423268 10.8456C0.147481 11.0628 0.0015566 11.309 1.23847e-05 11.5598C-0.00153183 11.8106 0.141358 12.0572 0.414466 12.2751C0.687574 12.4929 1.08138 12.6745 1.55671 12.8017C2.03203 12.9289 2.57231 12.9972 3.12378 13H29.8762C30.4277 12.9972 30.968 12.9289 31.4433 12.8017C31.9186 12.6745 32.3124 12.4929 32.5855 12.2751C32.8586 12.0572 33.0015 11.8106 33 11.5598C32.9984 11.309 32.8525 11.0628 32.5767 10.8456L19.2005 0.691369C18.919 0.480317 18.5226 0.305822 18.0495 0.184721C17.5765 0.0636199 17.0428 0 16.5 0C15.9572 0 15.4235 0.0636199 14.9505 0.184721C14.4774 0.305822 14.081 0.480317 13.7995 0.691369Z" fill="#08C25D"/>
</svg>