<svg xmlns="http://www.w3.org/2000/svg" width="28" height="28" viewBox="0 0 28 28" fill="none">
  <path d="M26.6301 14.0165C26.6301 21.0941 20.8926 26.8316 13.815 26.8316C6.73746 26.8316 1 21.0941 1 14.0165C1 6.93896 6.73746 1.20148 13.815 1.20148C20.8926 1.20148 26.6301 6.93897 26.6301 14.0165Z" fill="white" stroke="#08C25D" stroke-width="2"/>
  <path d="M19.7434 20.1117C19.5533 20.1117 19.3609 20.0636 19.1848 19.9615L12.4847 16.0977V5.86163C12.4847 5.24264 12.9862 4.74072 13.6056 4.74072C14.2242 4.74072 14.7261 5.24218 14.7261 5.86163V14.8026L20.3043 18.0196C20.8407 18.3291 21.0245 19.0139 20.715 19.5503C20.5072 19.9106 20.1305 20.1117 19.7434 20.1117Z" fill="#08C25D"/>
</svg>