<svg width="19" height="25" viewBox="0 0 19 25" fill="none" xmlns="http://www.w3.org/2000/svg">
<g id="Group 1">
<path id="Vector" d="M17.848 10.1111C17.848 17.1111 9.424 23.1111 9.424 23.1111C9.424 23.1111 1 17.1111 1 10.1111C1 7.72414 1.88753 5.43495 3.46733 3.74712C5.04714 2.0593 7.18982 1.11108 9.424 1.11108C11.6582 1.11108 13.8009 2.0593 15.3807 3.74712C16.9605 5.43495 17.848 7.72414 17.848 10.1111Z" stroke="#08C25D" stroke-width="2" stroke-linecap="round" stroke-linejoin="round"/>
<path id="Vector_2" d="M9.42395 13.1111C10.9748 13.1111 12.232 11.7679 12.232 10.1111C12.232 8.45423 10.9748 7.11108 9.42395 7.11108C7.87314 7.11108 6.61595 8.45423 6.61595 10.1111C6.61595 11.7679 7.87314 13.1111 9.42395 13.1111Z" stroke="#08C25D" stroke-width="2" stroke-linecap="round" stroke-linejoin="round"/>
</g>
</svg>
